<svg version="1.2" xmlns="http://www.w3.org/2000/svg" viewBox="0 0 1040 1542" width="1040" height="1542">
	<title>Group (1)-svg</title>
	<style>
		.s0 { fill: #fe5005 } 
	</style>
	<path fill-rule="evenodd" class="s0" d="m605 537.2v-233.9c0-3.6-0.7-7.1-2.1-10.5-1.4-3.3-3.4-6.3-6-8.9-2.5-2.5-5.5-4.6-8.9-5.9-3.3-1.4-6.9-2.1-10.5-2.2-3.6 0.1-7.2 0.8-10.5 2.2-3.3 1.4-6.3 3.4-8.9 5.9-2.5 2.6-4.6 5.6-5.9 8.9-1.4 3.4-2.2 6.9-2.2 10.5v274.7c0 15.6 12.7 28 28 28h26.8c389.9 0 430.5 20.3 406.1 102.7-1.1 4-2.4 7.9-3.8 12.2l-0.7 2.5c-102.4 308.9-379.3 695.6-461.1 806.1-2.7 3.7-6.2 6.6-10.2 8.6-4 2.1-8.4 3.1-12.9 3.1-4.5 0-9-1-13-3.1-4-2-7.5-4.9-10.1-8.6-49.4-66.8-170.3-234.7-280.6-425.2-7.4-17.4-11-58 111.4-58h149.8c8.3 0 15.1 6.8 15.1 15.1v121c0 14.4 10.6 27.7 25 28.9q3 0.3 6-0.1 3-0.4 5.8-1.5 2.9-1.1 5.4-2.7 2.5-1.7 4.7-3.8 1.9-1.9 3.5-4.1 1.5-2.3 2.6-4.8 1-2.5 1.5-5.1 0.5-2.7 0.5-5.4v-164.1c0-3.8-0.8-7.4-2.2-10.9-1.5-3.4-3.6-6.5-6.2-9.2-2.6-2.6-5.7-4.7-9.2-6.1-3.4-1.5-7.1-2.2-10.8-2.2h-302.6c-52.8 0-84.8-45.2-105.8-86.3-65.8-138.1-113-274.4-113-381.8 0-275.1 219.2-522.7 521.8-522.7 269.5 0 473.6 196.1 515.1 433.3 0.2 2 1.8 11.1 2 12.9 10.8 116.4-292.7 103.1-420.3 103.8-1.8 0-3.6-0.4-5.2-1-1.7-0.7-3.2-1.7-4.4-3-1.3-1.2-2.3-2.7-3-4.4-0.6-1.6-1-3.4-1-5.2z"/>
</svg>